<svg xmlns="http://www.w3.org/2000/svg" width="64" height="64" viewBox="0 0 64 64" fill="none">
  <defs>
    <linearGradient id="chipGradient" x1="0%" y1="0%" x2="100%" y2="100%">
      <stop offset="0%" style="stop-color:#1e3a8a"/>
      <stop offset="100%" style="stop-color:#3b82f6"/>
    </linearGradient>
  </defs>
  
  <!-- Main chip body -->
  <rect x="8" y="8" width="48" height="48" rx="4" fill="url(#chipGradient)" stroke="#0f172a" stroke-width="1"/>
  
  <!-- Chip pins on left -->
  <rect x="2" y="16" width="6" height="2" fill="#374151"/>
  <rect x="2" y="20" width="6" height="2" fill="#374151"/>
  <rect x="2" y="24" width="6" height="2" fill="#374151"/>
  <rect x="2" y="28" width="6" height="2" fill="#374151"/>
  <rect x="2" y="32" width="6" height="2" fill="#374151"/>
  <rect x="2" y="36" width="6" height="2" fill="#374151"/>
  <rect x="2" y="40" width="6" height="2" fill="#374151"/>
  <rect x="2" y="44" width="6" height="2" fill="#374151"/>
  
  <!-- Chip pins on right -->
  <rect x="56" y="16" width="6" height="2" fill="#374151"/>
  <rect x="56" y="20" width="6" height="2" fill="#374151"/>
  <rect x="56" y="24" width="6" height="2" fill="#374151"/>
  <rect x="56" y="28" width="6" height="2" fill="#374151"/>
  <rect x="56" y="32" width="6" height="2" fill="#374151"/>
  <rect x="56" y="36" width="6" height="2" fill="#374151"/>
  <rect x="56" y="40" width="6" height="2" fill="#374151"/>
  <rect x="56" y="44" width="6" height="2" fill="#374151"/>
  
  <!-- Chip pins on top -->
  <rect x="16" y="2" width="2" height="6" fill="#374151"/>
  <rect x="20" y="2" width="2" height="6" fill="#374151"/>
  <rect x="24" y="2" width="2" height="6" fill="#374151"/>
  <rect x="28" y="2" width="2" height="6" fill="#374151"/>
  <rect x="32" y="2" width="2" height="6" fill="#374151"/>
  <rect x="36" y="2" width="2" height="6" fill="#374151"/>
  <rect x="40" y="2" width="2" height="6" fill="#374151"/>
  <rect x="44" y="2" width="2" height="6" fill="#374151"/>
  
  <!-- Chip pins on bottom -->
  <rect x="16" y="56" width="2" height="6" fill="#374151"/>
  <rect x="20" y="56" width="2" height="6" fill="#374151"/>
  <rect x="24" y="56" width="2" height="6" fill="#374151"/>
  <rect x="28" y="56" width="2" height="6" fill="#374151"/>
  <rect x="32" y="56" width="2" height="6" fill="#374151"/>
  <rect x="36" y="56" width="2" height="6" fill="#374151"/>
  <rect x="40" y="56" width="2" height="6" fill="#374151"/>
  <rect x="44" y="56" width="2" height="6" fill="#374151"/>
  
  <!-- Inner chip details -->
  <rect x="14" y="14" width="36" height="36" rx="2" fill="#1e40af" opacity="0.3"/>
  <circle cx="20" cy="20" r="2" fill="#f59e0b"/>
  <circle cx="44" cy="20" r="2" fill="#f59e0b"/>
  <circle cx="20" cy="44" r="2" fill="#f59e0b"/>
  <circle cx="44" cy="44" r="2" fill="#f59e0b"/>
  
  <!-- WiFi signal lines -->
  <path d="M 25 30 Q 32 24 39 30" stroke="#10b981" stroke-width="1.5" fill="none"/>
  <path d="M 27 32 Q 32 28 37 32" stroke="#10b981" stroke-width="1.5" fill="none"/>
  <path d="M 29 34 Q 32 32 35 34" stroke="#10b981" stroke-width="1.5" fill="none"/>
  <circle cx="32" cy="36" r="1" fill="#10b981"/>
</svg>