<svg xmlns="http://www.w3.org/2000/svg" width="64" height="64" viewBox="0 0 64 64" fill="none">
  <defs>
    <linearGradient id="moduleGradient" x1="0%" y1="0%" x2="100%" y2="100%">
      <stop offset="0%" style="stop-color:#7c3aed"/>
      <stop offset="100%" style="stop-color:#a855f7"/>
    </linearGradient>
  </defs>
  
  <!-- Main module board -->
  <rect x="8" y="12" width="48" height="40" rx="4" fill="url(#moduleGradient)" stroke="#581c87" stroke-width="1"/>
  
  <!-- Main chip on module -->
  <rect x="18" y="20" width="28" height="24" rx="2" fill="#1e40af" stroke="#1e3a8a" stroke-width="1"/>
  
  <!-- WiFi antenna trace -->
  <path d="M 50 16 L 54 16 L 54 20 L 50 20" stroke="#fbbf24" stroke-width="2" fill="none"/>
  <path d="M 50 22 L 58 22 L 58 26 L 50 26" stroke="#fbbf24" stroke-width="2" fill="none"/>
  <path d="M 50 28 L 54 28 L 54 32 L 50 32" stroke="#fbbf24" stroke-width="2" fill="none"/>
  
  <!-- Module pins -->
  <rect x="4" y="18" width="4" height="1.5" fill="#374151"/>
  <rect x="4" y="21" width="4" height="1.5" fill="#374151"/>
  <rect x="4" y="24" width="4" height="1.5" fill="#374151"/>
  <rect x="4" y="27" width="4" height="1.5" fill="#374151"/>
  <rect x="4" y="30" width="4" height="1.5" fill="#374151"/>
  <rect x="4" y="33" width="4" height="1.5" fill="#374151"/>
  <rect x="4" y="36" width="4" height="1.5" fill="#374151"/>
  <rect x="4" y="39" width="4" height="1.5" fill="#374151"/>
  <rect x="4" y="42" width="4" height="1.5" fill="#374151"/>
  <rect x="4" y="45" width="4" height="1.5" fill="#374151"/>
  
  <rect x="56" y="18" width="4" height="1.5" fill="#374151"/>
  <rect x="56" y="21" width="4" height="1.5" fill="#374151"/>
  <rect x="56" y="24" width="4" height="1.5" fill="#374151"/>
  <rect x="56" y="27" width="4" height="1.5" fill="#374151"/>
  <rect x="56" y="30" width="4" height="1.5" fill="#374151"/>
  <rect x="56" y="33" width="4" height="1.5" fill="#374151"/>
  <rect x="56" y="36" width="4" height="1.5" fill="#374151"/>
  <rect x="56" y="39" width="4" height="1.5" fill="#374151"/>
  <rect x="56" y="42" width="4" height="1.5" fill="#374151"/>
  <rect x="56" y="45" width="4" height="1.5" fill="#374151"/>
  
  <!-- Component indicators -->
  <rect x="14" y="16" width="3" height="2" fill="#ef4444"/>
  <rect x="47" y="46" width="3" height="2" fill="#22c55e"/>
  <circle cx="12" cy="48" r="1.5" fill="#fbbf24"/>
  
  <!-- AI symbol on chip -->
  <text x="32" y="35" font-family="Arial" font-size="8" font-weight="bold" fill="white" text-anchor="middle">AI</text>
</svg>