<svg xmlns="http://www.w3.org/2000/svg" width="64" height="64" viewBox="0 0 64 64" fill="none">
  <defs>
    <linearGradient id="riscvGradient" x1="0%" y1="0%" x2="100%" y2="100%">
      <stop offset="0%" style="stop-color:#059669"/>
      <stop offset="100%" style="stop-color:#10b981"/>
    </linearGradient>
  </defs>
  
  <!-- Main chip -->
  <rect x="10" y="10" width="44" height="44" rx="6" fill="url(#riscvGradient)" stroke="#064e3b" stroke-width="1"/>
  
  <!-- RISC-V logo inspired design -->
  <rect x="16" y="20" width="4" height="20" fill="white"/>
  <rect x="22" y="20" width="4" height="12" fill="white"/>
  <rect x="22" y="34" width="8" height="4" fill="white"/>
  <rect x="32" y="20" width="4" height="18" fill="white"/>
  <polygon points="38,20 42,20 46,28 42,36 38,36 42,28" fill="white"/>
  
  <!-- Corner decorations -->
  <circle cx="16" cy="16" r="2" fill="#fbbf24"/>
  <circle cx="48" cy="16" r="2" fill="#fbbf24"/>
  <circle cx="16" cy="48" r="2" fill="#fbbf24"/>
  <circle cx="48" cy="48" r="2" fill="#fbbf24"/>
  
  <!-- Connection lines -->
  <line x1="5" y1="20" x2="10" y2="20" stroke="#374151" stroke-width="2"/>
  <line x1="5" y1="26" x2="10" y2="26" stroke="#374151" stroke-width="2"/>
  <line x1="5" y1="32" x2="10" y2="32" stroke="#374151" stroke-width="2"/>
  <line x1="5" y1="38" x2="10" y2="38" stroke="#374151" stroke-width="2"/>
  <line x1="5" y1="44" x2="10" y2="44" stroke="#374151" stroke-width="2"/>
  
  <line x1="54" y1="20" x2="59" y2="20" stroke="#374151" stroke-width="2"/>
  <line x1="54" y1="26" x2="59" y2="26" stroke="#374151" stroke-width="2"/>
  <line x1="54" y1="32" x2="59" y2="32" stroke="#374151" stroke-width="2"/>
  <line x1="54" y1="38" x2="59" y2="38" stroke="#374151" stroke-width="2"/>
  <line x1="54" y1="44" x2="59" y2="44" stroke="#374151" stroke-width="2"/>
</svg>